<?xml version="1.0" encoding="UTF-8"?>
<svg width="182px" height="182px" viewBox="0 0 512 182"  version="1.1" xmlns="http://www.w3.org/2000/svg" preserveAspectRatio="xMidYMid" enable-background="new 0 0 500 500" fill="#AB7C94">
    <title>Recoil</title>
    <g>
        <path  d="M38.9404276,0 C47.403715,0 54.2587768,6.8550618 54.2587768,15.3183492 C54.2587768,21.6272174 50.4364386,27.0494607 44.9764057,29.4004356 L44.8104511,29.4707349 L44.8104511,35.9237403 C44.8104511,42.1530013 49.4406031,47.4562319 55.5994934,48.3223977 L55.7865912,48.3472833 L57.6360506,48.5885172 C67.6472553,49.8549949 75.406944,57.0518046 77.3971232,66.9423923 C79.3873024,76.83298 75.0450932,86.4823339 66.3003663,91.5482446 C62.3852596,93.802397 58.1200689,95.1813392 53.6195757,95.6468107 L53.3943555,95.6693228 L25.5921547,98.2826895 C22.757657,98.5440262 20.0839819,99.4084475 17.611335,100.835748 C12.565527,103.750657 11.5804888,108.796465 12.344396,112.535589 C13.1006641,116.237323 15.9257235,120.451328 21.5802984,121.237445 L23.6019755,121.501447 C35.7818724,123.013983 44.9866504,133.33366 45.1695279,145.574948 L45.1723019,145.946477 L45.1723019,151.937117 C50.539755,154.30925 54.2989824,159.696806 54.2989824,165.948783 C54.2989824,174.412071 47.4439206,181.267133 38.9806332,181.267133 C30.5173458,181.267133 23.662284,174.412071 23.662284,165.948783 C23.662284,159.659817 27.4649194,154.237773 32.9050525,151.8868 L33.070404,151.816501 L33.070404,145.946477 C33.070404,139.717216 28.440252,134.413985 22.2813617,133.54782 L22.094264,133.522934 L20.2448045,133.2817 C10.2335999,132.015222 2.47391114,124.818413 0.483731905,114.927825 C-1.52655015,105.037237 2.83576191,95.3878834 11.5804888,90.3219726 C15.4955955,88.0678203 19.7607863,86.6888781 24.2612794,86.2234066 L24.4864996,86.2008944 L52.2887004,83.5875277 C55.1231981,83.326191 57.7968732,82.4617698 60.2695201,81.0344695 C65.3153281,78.1195605 66.3003663,73.0737526 65.5364591,69.334628 C64.780191,65.6328946 61.9551316,61.4188891 56.3005567,60.6327723 L54.2788796,60.36877 C42.0989827,58.8562338 32.8942048,48.5365574 32.7113272,36.2952695 L32.7085532,35.9237403 L32.7085532,29.3099123 C27.3612029,26.9176767 23.6220783,21.5502236 23.6220783,15.3183492 C23.6220783,6.8550618 30.4771401,0 38.9404276,0 Z M57.3546112,102.504282 L65.9385155,111.912402 C72.3269908,118.937735 75.8782667,127.992453 75.9486533,137.45758 L75.9497201,137.744526 L63.8277194,137.744526 C63.8277194,131.256542 61.4436837,125.044396 57.1242444,120.219917 L56.9927604,120.074147 L42.3981127,104.072302 L54.0577486,102.966647 L54.4262727,102.925641 C55.2996807,102.826417 56.1716942,102.711854 57.0323971,102.56212 L57.3546112,102.504282 Z M12.9876863,43.6633262 C12.9876863,50.1513105 15.371722,56.3634559 19.6911612,61.187935 L19.8226452,61.3337054 L34.4574986,77.3757562 L23.6823868,78.401 L23.3623063,78.4302621 C22.1888122,78.5427903 21.0175324,78.7128911 19.8728245,78.9405645 L19.5613086,79.0040846 L10.8969929,69.4954505 C4.5085176,62.4900196 0.957241781,53.4157974 0.886855112,43.9502781 L0.885788316,43.6633262 L12.9876863,43.6633262 Z" fill="white"></path>

    </g>
</svg>
